<svg width="88" height="75" xmlns="http://www.w3.org/2000/svg" xmlns:xlink="http://www.w3.org/1999/xlink" xmlns:svgjs="http://svgjs.com/svgjs" viewBox="0.147 0 87.706 75" fill="#54d154"><svg xmlns="http://www.w3.org/2000/svg" width="88" height="75" viewBox="1.865 1.348 86.135 73.657"><path paint-order="stroke fill markers" fill-rule="evenodd" d="M86.198 3.147c-1.201-1.199-2.652-1.799-4.35-1.799H8.018c-1.7 0-3.15.601-4.35 1.799-1.202 1.199-1.803 2.645-1.803 4.34v61.38c0 1.694.6 3.14 1.802 4.34 1.202 1.198 2.652 1.799 4.35 1.799h73.83c1.699 0 3.149-.6 4.35-1.8C87.4 72.009 88 70.562 88 68.868V7.487c0-1.694-.601-3.14-1.802-4.34zM14.17 4.417h18.457v6.139H14.17V4.418zm67.678 64.45H8.018V62.73h73.83v6.138zM26.475 41.342c0-5.083 1.803-9.423 5.407-13.02 3.606-3.596 7.955-5.394 13.05-5.394 5.096 0 9.446 1.798 13.05 5.394 3.605 3.597 5.408 7.937 5.408 13.02 0 5.083-1.803 9.423-5.408 13.02-3.604 3.596-7.954 5.394-13.05 5.394-5.095 0-9.444-1.798-13.05-5.395-3.605-3.596-5.407-7.936-5.407-13.02zm55.373-27.237v5.658H8.018v-6.138h30.955l3.076-6.138h39.799v6.618zM53.632 50.022c2.404-2.398 3.606-5.291 3.606-8.68 0-3.389-1.202-6.282-3.606-8.68-2.403-2.397-5.303-3.596-8.7-3.596-3.397 0-6.296 1.199-8.7 3.597-2.403 2.397-3.605 5.29-3.605 8.679 0 3.389 1.202 6.282 3.605 8.68 2.404 2.397 5.304 3.596 8.7 3.596 3.397 0 6.297-1.199 8.7-3.596zM41.663 37.985c-.897.896-1.345 1.982-1.345 3.26 0 .449-.144.816-.433 1.104-.288.288-.656.431-1.106.431-.448 0-.817-.143-1.105-.431-.289-.288-.433-.655-.433-1.103 0-2.11.753-3.916 2.26-5.419 1.506-1.502 3.316-2.253 5.431-2.253.449 0 .817.143 1.106.431.289.287.433.655.433 1.103 0 .447-.144.815-.434 1.103-.288.288-.657.432-1.105.432-1.282 0-2.371.447-3.269 1.342z"/></svg></svg>