<svg width="88" height="75" xmlns="http://www.w3.org/2000/svg" xmlns:xlink="http://www.w3.org/1999/xlink" xmlns:svgjs="http://svgjs.com/svgjs" viewBox="0.146 0 87.708 75" fill="#54d154"><svg xmlns="http://www.w3.org/2000/svg" width="88" height="75" viewBox="1.857 1.995 86.135 73.655"><path paint-order="stroke fill markers" fill-rule="evenodd" d="M55.692 52.633c0 .832-.305 1.551-.913 2.159-.609.607-1.33.911-2.163.911H37.234c-.833 0-1.554-.304-2.163-.911-.609-.608-.913-1.327-.913-2.159v-7.671h-32.3v23.017c0 2.109.752 3.916 2.258 5.418C5.622 74.9 7.433 75.65 9.548 75.65h70.754c2.114 0 3.925-.75 5.431-2.253 1.507-1.502 2.26-3.309 2.26-5.418V44.962h-32.3v7.671zm-16.92-7.671h12.306v6.137H38.772v-6.137zm46.961-28.437c-1.506-1.503-3.317-2.254-5.431-2.254h-16.92V6.598c0-1.279-.448-2.365-1.346-3.26-.896-.895-1.986-1.343-3.268-1.343H31.082c-1.282 0-2.371.448-3.269 1.343-.897.894-1.346 1.981-1.346 3.26v7.673H9.548c-2.115 0-3.926.751-5.432 2.254-1.506 1.502-2.259 3.308-2.259 5.418v18.415h86.135V21.943c0-2.11-.752-3.916-2.259-5.418zM57.23 14.27H32.62V8.133h24.61v6.138z"/></svg></svg>