<svg width="88" height="69" xmlns="http://www.w3.org/2000/svg" xmlns:xlink="http://www.w3.org/1999/xlink" xmlns:svgjs="http://svgjs.com/svgjs" viewBox="0 0.01 88 68.981" fill="#54d154"><svg xmlns="http://www.w3.org/2000/svg" width="88" height="69" viewBox="2 1.36 86.135 67.519"><path paint-order="stroke fill markers" fill-rule="evenodd" d="M84.723 27.64c-2.274-5.308-5.335-9.879-9.18-13.716-3.845-3.836-8.428-6.889-13.748-9.159C56.475 2.495 50.9 1.36 45.068 1.36c-5.833 0-11.409 1.136-16.728 3.405-5.319 2.27-9.901 5.323-13.746 9.16-3.847 3.836-6.906 8.407-9.182 13.714C3.138 32.946 2 38.51 2 44.327c0 8.376 2.259 16.097 6.777 23.163.609.926 1.474 1.39 2.596 1.39h67.39c1.12 0 1.986-.464 2.594-1.39 4.52-7.098 6.778-14.818 6.778-23.163 0-5.818-1.137-11.38-3.412-16.688zM40.717 9.297c1.203-1.2 2.652-1.8 4.35-1.8 1.7 0 3.149.6 4.35 1.8 1.202 1.198 1.804 2.645 1.804 4.339 0 1.694-.602 3.14-1.804 4.34-1.201 1.199-2.65 1.799-4.35 1.799-1.698 0-3.148-.6-4.35-1.8-1.201-1.198-1.802-2.645-1.802-4.339 0-1.694.6-3.141 1.802-4.34zM18.655 48.667c-1.202 1.199-2.652 1.8-4.35 1.8-1.698 0-3.148-.601-4.35-1.8-1.202-1.198-1.802-2.646-1.802-4.34s.6-3.14 1.802-4.34c1.202-1.199 2.652-1.798 4.35-1.798 1.698 0 3.149.6 4.35 1.798 1.202 1.2 1.803 2.646 1.803 4.34s-.601 3.14-1.803 4.34zm9.23-21.483c-1.203 1.199-2.653 1.798-4.351 1.798-1.699 0-3.149-.6-4.35-1.798-1.202-1.199-1.803-2.645-1.803-4.34 0-1.694.6-3.14 1.802-4.34 1.203-1.199 2.652-1.798 4.35-1.798 1.7 0 3.15.6 4.351 1.798 1.201 1.2 1.803 2.646 1.803 4.34s-.602 3.14-1.803 4.34zm27.228.408l-4.855 18.317c1.603 1.087 2.757 2.541 3.462 4.365.704 1.822.8 3.692.288 5.61-.64 2.461-2.067 4.332-4.278 5.61-2.212 1.279-4.55 1.6-7.018.96-2.467-.64-4.342-2.062-5.624-4.268-1.281-2.207-1.602-4.54-.96-7.002.512-1.917 1.521-3.492 3.028-4.722 1.505-1.232 3.22-1.927 5.142-2.087l4.855-18.318a3.029 3.029 0 0 1 1.442-1.895c.737-.43 1.505-.535 2.307-.31a3.043 3.043 0 0 1 1.85 1.413c.434.72.554 1.495.361 2.327zm7.139-.408c-1.202-1.199-1.804-2.645-1.804-4.34 0-1.694.602-3.14 1.804-4.34 1.201-1.199 2.651-1.798 4.35-1.798 1.698 0 3.147.6 4.35 1.798 1.201 1.2 1.803 2.646 1.803 4.34s-.602 3.14-1.804 4.34c-1.202 1.199-2.651 1.798-4.35 1.798-1.698 0-3.148-.6-4.35-1.798zM80.18 48.667c-1.202 1.199-2.652 1.8-4.35 1.8-1.698 0-3.148-.601-4.35-1.8-1.202-1.198-1.803-2.646-1.803-4.34s.601-3.14 1.803-4.34c1.202-1.199 2.652-1.798 4.35-1.798 1.698 0 3.148.6 4.35 1.798 1.201 1.2 1.802 2.646 1.802 4.34s-.6 3.14-1.802 4.34z"/></svg></svg>