<svg id="SvgjsSvg1078657" width="21" height="21" xmlns="http://www.w3.org/2000/svg" version="1.1" xmlns:xlink="http://www.w3.org/1999/xlink" xmlns:svgjs="http://svgjs.com/svgjs" viewBox="0 0.0003662109375 20.99993896484375 20.99920654296875" fill="#ea4c89" opacity="1"><defs id="SvgjsDefs1078658"></defs><svg version="1.1" xmlns="http://www.w3.org/2000/svg" xmlns:xlink="http://www.w3.org/1999/xlink" width="21" height="21" viewBox="1.00004 1.99992 19.9999 19.9992"><g><path fill="#ea4c89" stroke="none" paint-order="stroke fill markers" fill-rule="evenodd" d=" M 11.000036716461182 1.9999207854270935 C 5.486106991767883 2.000160336494446 1.000246524810791 6.4859936237335205 1.0000373125076294 11.99950098991394 C 1.000246524810791 17.513487458229065 5.486106991767883 21.999081194400787 11.000036716461182 21.999081194400787 C 16.514036178588867 21.999081194400787 20.99989664554596 17.513487458229065 20.99989664554596 11.99950098991394 C 20.99989664554596 6.4859936237335205 16.514036178588867 2.000160336494446 11.000036716461182 1.9999207854270935 Z M 17.579275488853455 6.720035016536713 C 18.719900965690613 8.135302722454071 19.41364896297455 9.9233118891716 19.445937395095825 11.870143413543701 C 19.066356539726257 11.793247520923615 17.458420515060425 11.492371380329132 15.53743314743042 11.492371380329132 C 14.917746305465698 11.492371380329132 14.26549208164215 11.523752570152283 13.61156415939331 11.604241728782654 C 13.55640184879303 11.470572233200073 13.500611901283264 11.335704982280731 13.442939043045044 11.20083773136139 C 13.273128390312195 10.801266551017761 13.091043949127197 10.405049085617065 12.901079177856445 10.015299499034882 C 15.857318758964539 8.795505464076996 17.284146666526794 7.10283762216568 17.579275488853455 6.720035016536713 Z M 11.000036716461182 3.5649079084396362 C 13.130515336990356 3.5649079084396362 15.078142404556274 4.357821941375732 16.565990567207336 5.663614809513092 C 16.330278038978577 5.985810995101929 15.053106665611267 7.583616614341736 12.202449560165405 8.662794172763824 C 10.883505463600159 6.246682107448578 9.438476085662842 4.2473888993263245 9.094810009002686 3.7828993797302246 C 9.7074533700943 3.6406060457229614 10.344923257827759 3.5649079084396362 11.000036716461182 3.5649079084396362 Z M 7.371109843254089 4.385609865188599 C 7.662333369255066 4.786857903003693 9.108408808708191 6.8074711561203 10.461663722991943 9.204179584980011 C 6.829877614974976 10.159748792648315 3.604381799697876 10.222750723361969 2.826321244239807 10.222750723361969 C 2.794590711593628 10.222750723361969 2.767044425010681 10.222750723361969 2.743821859359741 10.222750723361969 C 3.302627921104431 7.641587972640991 5.044459819793701 5.497126817703247 7.371109843254089 4.385609865188599 Z M 2.551695227622986 12.012676298618317 C 2.551695227622986 11.942727386951447 2.553438663482666 11.873497128486633 2.555461049079895 11.803787767887115 C 2.60602068901062 11.804745972156525 2.6800121068954468 11.805704176425934 2.7770168781280518 11.805704176425934 C 3.8248915672302246 11.805704176425934 7.4641395807266235 11.718507587909698 11.214130640029907 10.60387647151947 C 11.441614151000977 11.049920558929443 11.65877652168274 11.502192974090576 11.859829545021057 11.954225838184357 C 11.765684008598328 11.981534659862518 11.671817421913147 12.009083032608032 11.578996896743774 12.039026916027069 C 7.3570228815078735 13.404947102069855 5.035533428192139 17.019533157348633 4.6786869764328 17.61002653837204 C 3.3559770584106445 16.117862939834595 2.551695227622986 14.15809565782547 2.551695227622986 12.012676298618317 Z M 11.000036716461182 20.46068423986435 C 9.061614990234375 20.46068423986435 7.274523496627808 19.803356111049652 5.8472771644592285 18.7019003033638 C 6.08842921257019 18.22782874107361 7.839815139770508 15.069827020168304 12.467382073402405 13.456929683685303 C 12.470380783081055 13.455971479415894 12.473797917366028 13.455013275146484 12.47700583934784 13.454055070877075 C 13.636599898338318 16.478866398334503 14.128109335899353 19.017628610134125 14.263469696044922 19.80407476425171 C 13.258832216262817 20.226642847061157 12.156353116035461 20.46068423986435 11.000036716461182 20.46068423986435 Z M 15.78437340259552 18.97115570306778 C 15.671189546585083 18.320295453071594 15.216292262077332 15.941074252128601 14.16513991355896 13.039392173290253 C 14.754979133605957 12.947883665561676 15.328290581703186 12.91171145439148 15.866175413131714 12.91171145439148 C 17.631648302078247 12.911471903324127 19.012798190116882 13.298825979232788 19.333869338035583 13.396323263645172 C 18.952335834503174 15.701762735843658 17.634507536888123 17.695067167282104 15.78437340259552 18.97115570306778 Z"></path></g></svg></svg>