<svg id="SvgjsSvg1081505" width="21" height="21" xmlns="http://www.w3.org/2000/svg" version="1.1" xmlns:xlink="http://www.w3.org/1999/xlink" xmlns:svgjs="http://svgjs.com/svgjs" viewBox="0 0 20.99993896484375 21" fill="#0061ff" opacity="1"><defs id="SvgjsDefs1081506"></defs><svg version="1.1" xmlns="http://www.w3.org/2000/svg" xmlns:xlink="http://www.w3.org/1999/xlink" width="21" height="21" viewBox="1.00223 1.00184 19.9946 19.9946"><g><path fill="#0061ff" stroke="none" paint-order="stroke fill markers" fill-rule="evenodd" d=" M 9.416123628616333 9.331986010074615 C 9.416123628616333 8.567099452018738 8.895463943481445 8.567099452018738 8.895463943481445 8.567099452018738 C 8.895463943481445 8.567099452018738 8.619582653045654 8.567099452018738 8.619582653045654 8.567099452018738 C 8.619582653045654 8.567099452018738 6.753478646278381 8.567099452018738 6.753478646278381 8.567099452018738 C 6.753478646278381 8.567099452018738 6.752711534500122 8.567099452018738 6.752711534500122 8.567099452018738 C 6.752711534500122 8.567099452018738 6.752711534500122 10.208982467651367 6.752711534500122 10.208982467651367 C 6.752711534500122 10.208982467651367 8.762544393539429 10.208982467651367 8.762544393539429 10.208982467651367 C 9.110046029090881 10.208982467651367 9.416123628616333 10.098309874534607 9.416123628616333 9.331986010074615 Z M 14.37975525856018 10.208982467651367 C 13.243314027786255 10.208982467651367 13.085079789161682 11.343256771564484 13.085079789161682 11.343256771564484 C 13.085079789161682 11.343256771564484 15.502458214759827 11.343256771564484 15.502458214759827 11.343256771564484 C 15.502458214759827 11.343256771564484 15.517312288284302 10.208982467651367 14.37975525856018 10.208982467651367 Z M 8.895463943481445 11.343256771564484 C 8.895463943481445 11.343256771564484 6.753897070884705 11.343256771564484 6.753897070884705 11.343256771564484 C 6.753897070884705 11.343256771564484 6.753897070884705 13.309971034526825 6.753897070884705 13.309971034526825 C 6.753897070884705 13.309971034526825 8.650964498519897 13.309971034526825 8.650964498519897 13.309971034526825 C 8.683183193206787 13.309971034526825 8.730744123458862 13.311408340930939 8.787510395050049 13.309971034526825 C 9.09233272075653 13.303024053573608 9.671850800514221 13.215108811855316 9.671850800514221 12.353922724723816 C 9.671850800514221 11.33343517780304 8.895463943481445 11.343256771564484 8.895463943481445 11.343256771564484 Z M 10.999512076377869 1.0018371939659119 C 5.487046837806702 1.0018371939659119 1.0022324323654175 5.486712276935577 1.0022324323654175 10.999021887779236 C 1.0022324323654175 16.5118106007576 5.487046837806702 20.996446132659912 10.999512076377869 20.996446132659912 C 16.511977314949036 20.996446132659912 20.99679172039032 16.5118106007576 20.99679172039032 10.999021887779236 C 20.99679172039032 5.486712276935577 16.511977314949036 1.0018371939659119 10.999512076377869 1.0018371939659119 Z M 12.768123149871826 7.692498505115509 C 12.768123149871826 7.692498505115509 15.80449104309082 7.692498505115509 15.80449104309082 7.692498505115509 C 15.80449104309082 7.692498505115509 15.80449104309082 8.598959743976593 15.80449104309082 8.598959743976593 C 15.80449104309082 8.598959743976593 12.768123149871826 8.598959743976593 12.768123149871826 8.598959743976593 C 12.768123149871826 8.598959743976593 12.768123149871826 7.692498505115509 12.768123149871826 7.692498505115509 Z M 11.233481168746948 12.44614988565445 C 11.233481168746948 14.691941142082214 8.895463943481445 14.618159413337708 8.895463943481445 14.618159413337708 C 8.895463943481445 14.618159413337708 6.753897070884705 14.618159413337708 6.753897070884705 14.618159413337708 C 6.753897070884705 14.618159413337708 6.691063642501831 14.618159413337708 6.691063642501831 14.618159413337708 C 6.691063642501831 14.618159413337708 5.0665998458862305 14.618159413337708 5.0665998458862305 14.618159413337708 C 5.0665998458862305 14.618159413337708 5.0665998458862305 7.258911073207855 5.0665998458862305 7.258911073207855 C 5.0665998458862305 7.258911073207855 6.691063642501831 7.258911073207855 6.691063642501831 7.258911073207855 C 6.691063642501831 7.258911073207855 6.753897070884705 7.258911073207855 6.753897070884705 7.258911073207855 C 6.753897070884705 7.258911073207855 8.895463943481445 7.258911073207855 8.895463943481445 7.258911073207855 C 10.059590935707092 7.258911073207855 10.978172421455383 7.902105689048767 10.978172421455383 9.218917906284332 C 10.978172421455383 10.535251021385193 9.855469465255737 10.619093894958496 9.855469465255737 10.619093894958496 C 11.335367560386658 10.619093894958496 11.233481168746948 12.44614988565445 11.233481168746948 12.44614988565445 Z M 16.91310703754425 12.32517659664154 C 16.91310703754425 12.32517659664154 13.099585175514221 12.32517659664154 13.099585175514221 12.32517659664154 C 13.099585175514221 13.693013191223145 14.394609332084656 13.606056153774261 14.394609332084656 13.606056153774261 C 15.617594718933105 13.606056153774261 15.574496984481812 12.814818978309631 15.574496984481812 12.814818978309631 C 15.574496984481812 12.814818978309631 16.87042772769928 12.814818978309631 16.87042772769928 12.814818978309631 C 16.87042772769928 14.91592139005661 14.351930022239685 14.771711647510529 14.351930022239685 14.771711647510529 C 11.33055567741394 14.771711647510529 11.524634957313538 11.958903014659882 11.524634957313538 11.958903014659882 C 11.524634957313538 11.958903014659882 11.522194147109985 9.13100266456604 14.351930022239685 9.13100266456604 C 17.330694794654846 9.13100266456604 16.912688612937927 12.32517659664154 16.91310703754425 12.32517659664154 Z"></path></g></svg></svg>