<svg id="SvgjsSvg1081451" width="21" height="21" xmlns="http://www.w3.org/2000/svg" version="1.1" xmlns:xlink="http://www.w3.org/1999/xlink" xmlns:svgjs="http://svgjs.com/svgjs" viewBox="0 0.00006103515625 21 20.9998779296875" fill="#00aced" opacity="1"><defs id="SvgjsDefs1081452"></defs><svg version="1.1" xmlns="http://www.w3.org/2000/svg" xmlns:xlink="http://www.w3.org/1999/xlink" width="21" height="21" viewBox="1.99996 1.99968 20 19.9999"><g><path fill="#00aced" stroke="none" paint-order="stroke fill markers" fill-rule="evenodd" d=" M 11.999963760375977 1.9996812343597412 C 6.477456331253052 1.9996812343597412 1.9999643564224243 6.477130234241486 1.9999643564224243 11.99950098991394 C 1.9999643564224243 17.522111296653748 6.477456331253052 21.999560296535492 11.999963760375977 21.999560296535492 C 17.5224711894989 21.999560296535492 21.99996316432953 17.522111296653748 21.99996316432953 11.99950098991394 C 21.99996316432953 6.475932478904724 17.5224711894989 1.9996812343597412 11.999963760375977 1.9996812343597412 Z M 16.975590229034424 9.754907488822937 C 16.975590229034424 9.754907488822937 16.982842922210693 10.073270857334137 16.982842922210693 10.073270857334137 C 16.982842922210693 13.327811658382416 14.506117939949036 17.07774406671524 9.977229475975037 17.07774406671524 C 8.587432146072388 17.07774406671524 7.293593525886536 16.670028150081635 6.203457951545715 15.971976339817047 C 6.39635169506073 15.993775486946106 6.5922441482543945 16.007429897785187 6.791205048561096 16.007429897785187 C 7.944871425628662 16.007429897785187 9.006205439567566 15.612889289855957 9.848494172096252 14.953884303569794 C 8.771190285682678 14.934241116046906 7.862372040748596 14.221337139606476 7.548693060874939 13.243489682674408 C 7.700093030929565 13.271517157554626 7.852608799934387 13.286129772663116 8.01258647441864 13.286129772663116 C 8.237698912620544 13.286129772663116 8.455070495605469 13.257144093513489 8.661353826522827 13.2008495926857 C 7.535233736038208 12.973755180835724 6.68625020980835 11.9796182513237 6.68625020980835 10.787133038043976 C 6.68625020980835 10.787133038043976 6.68625020980835 10.755751848220825 6.68625020980835 10.755751848220825 C 7.01882803440094 10.940685272216797 7.3973628282547 11.051357865333557 7.80135178565979 11.064533174037933 C 7.1409382820129395 10.623280107975006 6.706334590911865 9.869412899017334 6.706334590911865 9.015652894973755 C 6.706334590911865 8.564578235149384 6.827189564704895 8.142249703407288 7.039121627807617 7.778611183166504 C 8.252483248710632 9.268379271030426 10.067609190940857 10.248622238636017 12.11349630355835 10.351150095462799 C 12.071374893188477 10.171007692813873 12.049965500831604 9.982001900672913 12.049965500831604 9.789402842521667 C 12.049965500831604 8.430908739566803 13.152305126190186 7.328734278678894 14.512185096740723 7.328734278678894 C 15.220229268074036 7.328734278678894 15.859861016273499 7.6272149085998535 16.31022536754608 8.105358839035034 C 16.87056565284729 7.994686245918274 17.397989869117737 7.789390981197357 17.873947858810425 7.5086371302604675 C 17.689701557159424 8.083799242973328 17.300217986106873 8.565775990486145 16.79120445251465 8.870964050292969 C 17.2880836725235 8.812274038791656 17.764111399650574 8.678125441074371 18.204851984977722 8.483609974384308 C 17.875203132629395 8.975887417793274 17.456499576568604 9.409953951835632 16.975590229034424 9.754907488822937 Z"></path></g></svg></svg>